<svg width="512" height="512" viewBox="0 0 512 512" xmlns="http://www.w3.org/2000/svg">
  <rect width="512" height="512" rx="104" fill="#0071E3"/>
  <g transform="translate(106.5 148) scale(1.46)" fill="#ffffff">
    <path d="M11.5557 0C-29.0197 1.92716e-05 50.293 11.131 50.293 52C50.293 92.869 -29.0197 148 11.5557 148C52.1313 148 85.0244 114.869 85.0244 74C85.0244 33.1309 52.1313 0 11.5557 0Z"/>
    <path d="M124.707 96C124.707 136.869 204.02 148 163.445 148C122.869 148 89.9761 114.869 89.9761 74C89.9761 33.1309 122.869 0 163.445 0C204.02 0 124.707 55.1309 124.707 96Z"/>
  </g>
</svg>
