<svg width="674" height="148" viewBox="0 0 674 148" fill="none" xmlns="http://www.w3.org/2000/svg">
<path d="M620.552 121V108.071H651.932C653.463 108.071 654.781 107.719 655.887 107.015C657.077 106.312 657.97 105.388 658.565 104.245C659.246 103.102 659.586 101.914 659.586 100.683C659.586 99.2756 659.288 98.0442 658.693 96.9888C658.098 95.9334 657.247 95.0978 656.142 94.4821C655.036 93.7785 653.761 93.4267 652.315 93.4267H639.559C635.392 93.4267 631.692 92.7231 628.461 91.3158C625.229 89.9086 622.678 87.7537 620.807 84.8513C618.936 81.8608 618 78.1228 618 73.6372C618 70.0311 618.851 66.7329 620.552 63.7425C622.338 60.7521 624.719 58.3334 627.695 56.4864C630.672 54.6393 634.031 53.7158 637.773 53.7158H668.005V66.6449H639.176C637.22 66.6449 635.604 67.3046 634.329 68.6239C633.053 69.8552 632.415 71.3944 632.415 73.2414C632.415 75.0005 633.053 76.5397 634.329 77.859C635.604 79.1783 637.305 79.8379 639.431 79.8379H651.805C656.482 79.8379 660.479 80.5855 663.795 82.0807C667.112 83.5759 669.621 85.8187 671.322 88.8092C673.108 91.7996 674 95.5816 674 100.155C674 103.849 673.108 107.323 671.322 110.578C669.536 113.744 667.07 116.295 663.923 118.229C660.862 120.077 657.375 121 653.463 121H620.552Z" fill="#FFFFFF"/>
<path d="M596.59 121C590.778 121 586.206 119.327 582.872 115.98C579.624 112.633 578 108.085 578 102.335V38.874H592.616V101.692C592.616 103.665 593.214 105.296 594.411 106.583C595.607 107.785 597.189 108.385 599.154 108.385H612.872V121H596.59ZM586.751 67.9658V53.7161H613V67.9658H586.751Z" fill="#FFFFFF"/>
<path d="M548.004 121V53.7162H562.724V121H548.004ZM555.3 45.8725C552.74 45.8725 550.521 44.9437 548.644 43.0862C546.767 41.2286 545.828 39.0333 545.828 36.5002C545.828 33.9672 546.767 31.7719 548.644 29.9143C550.521 28.0567 552.74 27.1279 555.3 27.1279C557.945 27.1279 560.164 28.0567 561.956 29.9143C563.833 31.7719 564.772 33.9672 564.772 36.5002C564.772 39.0333 563.833 41.2286 561.956 43.0862C560.164 44.9437 557.945 45.8725 555.3 45.8725Z" fill="#FFFFFF"/>
<path d="M506.437 120.976C499.781 120.976 493.893 119.583 488.773 116.797C483.653 114.01 479.642 110.042 476.741 104.891C473.925 99.6564 472.517 93.4926 472.517 86.4001V27H487.237V64.6158H487.365C488.73 62.3361 490.522 60.3519 492.741 58.6632C494.96 56.9745 497.434 55.6657 500.165 54.7369C502.896 53.8081 505.797 53.3437 508.869 53.3437C515.098 53.3437 520.56 54.7369 525.253 57.5233C530.032 60.2252 533.744 64.0248 536.389 68.922C539.12 73.8193 540.485 79.5608 540.485 86.1468C540.485 91.2973 539.674 96.0257 538.053 100.332C536.517 104.554 534.256 108.227 531.269 111.351C528.368 114.475 524.826 116.881 520.645 118.57C516.464 120.174 511.728 120.976 506.437 120.976ZM506.437 108.564C510.192 108.564 513.52 107.678 516.421 105.905C519.322 104.047 521.584 101.514 523.205 98.3054C524.826 95.0969 525.637 91.3818 525.637 87.16C525.637 83.0227 524.826 79.3498 523.205 76.1412C521.584 72.9327 519.322 70.3996 516.421 68.5421C513.605 66.6845 510.32 65.7557 506.565 65.7557C502.81 65.7557 499.482 66.6845 496.581 68.5421C493.68 70.3152 491.418 72.806 489.797 76.0146C488.176 79.2231 487.365 82.9383 487.365 87.16C487.365 91.3818 488.176 95.0969 489.797 98.3054C491.418 101.514 493.68 104.047 496.581 105.905C499.482 107.678 502.768 108.564 506.437 108.564Z" fill="#FFFFFF"/>
<path d="M446.59 121C440.778 121 436.206 119.327 432.872 115.98C429.624 112.633 428 108.085 428 102.335V38.874H442.616V101.692C442.616 103.665 443.214 105.296 444.411 106.583C445.607 107.785 447.189 108.385 449.154 108.385H462.872V121H446.59ZM428.738 67.9658V53.7161H463V67.9658H428.738Z" fill="#FFFFFF"/>
<path d="M353.079 121V82.2205C353.079 76.6478 354.359 71.7084 356.919 67.4022C359.479 63.0116 363.106 59.5919 367.799 57.1433C372.492 54.6103 377.996 53.3438 384.311 53.3438C390.626 53.3438 396.087 54.6103 400.695 57.1433C405.388 59.5919 409.015 63.0116 411.575 67.4022C414.135 71.7084 415.415 76.6478 415.415 82.2205V121H400.823V82.3472C400.823 79.0542 400.055 76.1834 398.519 73.7348C396.983 71.2018 394.935 69.2598 392.375 67.9088C389.9 66.4734 387.17 65.7557 384.183 65.7557C381.282 65.7557 378.551 66.4734 375.991 67.9088C373.516 69.2598 371.511 71.2018 369.975 73.7348C368.524 76.1834 367.799 79.0542 367.799 82.3472V121H353.079Z" fill="#FFFFFF"/>
<path d="M310.833 120.976C304.092 120.976 298.118 119.499 292.913 116.543C287.708 113.504 283.569 109.451 280.497 104.385C277.51 99.2342 276.017 93.4926 276.017 87.16C276.017 80.8274 277.51 75.128 280.497 70.0619C283.569 64.9114 287.708 60.8585 292.913 57.9032C298.118 54.8636 304.092 53.3438 310.833 53.3438C317.489 53.3438 323.42 54.8636 328.625 57.9032C333.83 60.8585 337.926 64.8691 340.913 69.9352C343.985 75.0013 345.521 80.7429 345.521 87.16C345.521 93.4926 343.985 99.2342 340.913 104.385C337.926 109.451 333.83 113.504 328.625 116.543C323.42 119.499 317.489 120.976 310.833 120.976ZM310.833 108.564C314.844 108.564 318.342 107.636 321.329 105.778C324.316 103.836 326.62 101.261 328.241 98.0521C329.862 94.8436 330.673 91.2129 330.673 87.16C330.673 83.1916 329.862 79.6031 328.241 76.3945C326.62 73.1016 324.316 70.5263 321.329 68.6687C318.342 66.7267 314.844 65.7557 310.833 65.7557C306.737 65.7557 303.196 66.7267 300.209 68.6687C297.308 70.5263 295.004 73.0593 293.297 76.2679C291.676 79.4764 290.865 83.1071 290.865 87.16C290.865 91.1285 291.676 94.7592 293.297 98.0521C295.004 101.261 297.308 103.836 300.209 105.778C303.196 107.636 306.737 108.564 310.833 108.564Z" fill="#FFFFFF"/>
<path d="M242 121V72.3992C242 66.558 243.607 62.0052 246.821 58.741C250.12 55.3909 254.645 53.7158 260.396 53.7158H276V66.3432H263.06C261.03 66.3432 259.423 66.9445 258.239 68.1471C257.14 69.3497 256.59 70.9819 256.59 73.0435V121H242Z" fill="#FFFFFF"/>
<path d="M205 121V67.2755V54.8636V45.3646C205 39.623 206.622 35.148 209.864 31.9394C213.192 28.6465 217.758 27 223.56 27H240.968V39.412H226.248C224.286 39.412 222.707 40.003 221.512 41.1851C220.318 42.3672 219.72 43.9715 219.72 45.9979V54.8636H238.28V67.2755H219.72V121H205Z" fill="#FFFFFF"/>
<path d="M11.5557 0C-29.0197 1.92716e-05 50.293 11.131 50.293 52C50.293 92.869 -29.0197 148 11.5557 148C52.1313 148 85.0244 114.869 85.0244 74C85.0244 33.1309 52.1313 0 11.5557 0Z" fill="#FFFFFF"/>
<path d="M124.707 96C124.707 136.869 204.02 148 163.445 148C122.869 148 89.9761 114.869 89.9761 74C89.9761 33.1309 122.869 0 163.445 0C204.02 0 124.707 55.1309 124.707 96Z" fill="#FFFFFF"/>
</svg>
