<svg viewBox="0 0 1600 1200" xmlns="http://www.w3.org/2000/svg" font-family="Inter, -apple-system, 'Segoe UI', Helvetica, Arial, sans-serif">
  <defs>
    <clipPath id="round"><rect x="0" y="0" width="1600" height="1200" rx="26"/></clipPath>
  </defs>
  <g clip-path="url(#round)">
    <rect x="0" y="0" width="1600" height="1200" fill="#ffffff"/>
    <rect x="0" y="92" width="1600" height="1108" fill="#ffffff"/>
    
  
  <rect x="0" y="0" width="1600" height="92" fill="#f1f1f5"/>
  <circle cx="46" cy="46" r="11" fill="#ff5f57"/>
  <circle cx="84" cy="46" r="11" fill="#febc2e"/>
  <circle cx="122" cy="46" r="11" fill="#28c840"/>
  <rect x="190" y="26" width="1220" height="40" rx="20" fill="#ffffff"/>
  <text x="800" y="52" font-family="Inter, -apple-system, 'Segoe UI', Helvetica, Arial, sans-serif" font-size="22" fill="#9a9aa8" text-anchor="middle">northpeak.io</text>

  <text x="70" y="150" font-family="Inter, -apple-system, 'Segoe UI', Helvetica, Arial, sans-serif" font-size="34" font-weight="700" fill="#16161d">Northpeak</text>
  <rect x="1380" y="122" width="150" height="52" rx="26" fill="#635BFF"/>
  <text x="1455" y="155" font-family="Inter, -apple-system, 'Segoe UI', Helvetica, Arial, sans-serif" font-size="21" font-weight="600" fill="#fff" text-anchor="middle">Start free</text>
  <text x="1330" y="154" font-family="Inter, -apple-system, 'Segoe UI', Helvetica, Arial, sans-serif" font-size="21" fill="#6b6b78" text-anchor="end">Docs</text>
  <text x="1234" y="154" font-family="Inter, -apple-system, 'Segoe UI', Helvetica, Arial, sans-serif" font-size="21" fill="#6b6b78" text-anchor="end">Customers</text>
  <text x="1073" y="154" font-family="Inter, -apple-system, 'Segoe UI', Helvetica, Arial, sans-serif" font-size="21" fill="#6b6b78" text-anchor="end">Pricing</text>
  <text x="938" y="154" font-family="Inter, -apple-system, 'Segoe UI', Helvetica, Arial, sans-serif" font-size="21" fill="#6b6b78" text-anchor="end">Product</text>
  <!-- hero left -->
  <rect x="70" y="222" width="250" height="40" rx="20.0" fill="#efeeff"/>
  <text x="92" y="249" font-family="Inter, -apple-system, 'Segoe UI', Helvetica, Arial, sans-serif" font-size="19" font-weight="600" fill="#635BFF">★ Loved by 4,000+ teams</text>
  <text x="68" y="357" font-family="Inter, -apple-system, 'Segoe UI', Helvetica, Arial, sans-serif" font-size="76" font-weight="800" fill="#16161d" letter-spacing="-2">Run every project</text>
  <text x="68" y="442" font-family="Inter, -apple-system, 'Segoe UI', Helvetica, Arial, sans-serif" font-size="76" font-weight="800" fill="#16161d" letter-spacing="-2">in one <tspan fill="#635BFF">calm</tspan> place.</text>
  <text x="70" y="507" font-family="Inter, -apple-system, 'Segoe UI', Helvetica, Arial, sans-serif" font-size="25" fill="#6b6b78">Plan, track, and ship work without the chaos of</text>
  <text x="70" y="542" font-family="Inter, -apple-system, 'Segoe UI', Helvetica, Arial, sans-serif" font-size="25" fill="#6b6b78">a dozen disconnected tools.</text>
  <rect x="70" y="582" width="215" height="62" rx="31.0" fill="#635BFF"/>
  <text x="177" y="621" font-family="Inter, -apple-system, 'Segoe UI', Helvetica, Arial, sans-serif" font-size="23" font-weight="600" fill="#fff" text-anchor="middle">Start for free</text>
  <rect x="300" y="582" width="200" height="62" rx="31" fill="#fff"/>
  <rect x="300" y="582" width="200" height="62" rx="31" fill="none" stroke="#e0e0ea" stroke-width="2"/>
  <text x="400" y="621" font-family="Inter, -apple-system, 'Segoe UI', Helvetica, Arial, sans-serif" font-size="23" font-weight="600" fill="#16161d" text-anchor="middle">Book a demo</text>
  <!-- hero right app card -->
  <rect x="820" y="212" width="710" height="560" rx="24" fill="#f7f7fb" stroke="#ececf3" stroke-width="2"/>
  <rect x="820" y="212" width="710" height="70" rx="24" fill="#ffffff"/>
  <rect x="820" y="252" width="710" height="22" fill="#ffffff"/>
  <circle cx="855" cy="247" r="8" fill="#635BFF"/>
  <text x="878" y="255" font-family="Inter, -apple-system, 'Segoe UI', Helvetica, Arial, sans-serif" font-size="20" font-weight="700" fill="#16161d">Sprint board</text>
  <rect x="860" y="{312}" width="290" height="130" rx="65.0" fill="#fff"/><rect x="1190" y="{312}" width="290" height="130" rx="65.0" fill="#fff"/>
  <rect x="880" y="{334}" width="130" height="18" rx="9.0" fill="#e7e6ff"/><rect x="880" y="{372}" width="230" height="14" rx="7.0" fill="#ececf1"/><rect x="880" y="{397}" width="180" height="14" rx="7.0" fill="#ececf1"/>
  <rect x="1210" y="{334}" width="130" height="18" rx="9.0" fill="#ffe9d8"/><rect x="1210" y="{372}" width="230" height="14" rx="7.0" fill="#ececf1"/><rect x="1210" y="{397}" width="180" height="14" rx="7.0" fill="#ececf1"/>
  <rect x="860" y="{472}" width="620" height="100" rx="50.0" fill="#fff"/>
  <circle cx="905" cy="522" r="22" fill="#635BFF"/>
  <rect x="945" y="{502}" width="300" height="16" rx="8.0" fill="#ececf1"/><rect x="945" y="{534}" width="420" height="14" rx="7.0" fill="#f1f1f6"/>
  <rect x="860" y="{592}" width="620" height="100" rx="50.0" fill="#fff"/>
  <circle cx="905" cy="642" r="22" fill="#ffb27a"/>
  <rect x="945" y="{622}" width="260" height="16" rx="8.0" fill="#ececf1"/><rect x="945" y="{654}" width="380" height="14" rx="7.0" fill="#f1f1f6"/>
  <!-- logos strip -->
  <text x="70" y="912" font-family="Inter, -apple-system, 'Segoe UI', Helvetica, Arial, sans-serif" font-size="18" font-weight="600" fill="#a3a3b0" letter-spacing="2">TRUSTED BY MODERN TEAMS</text>
  <rect x="70" y="942" width="170" height="34" rx="17.0" fill="#e9e9f0"/><rect x="320" y="942" width="170" height="34" rx="17.0" fill="#e9e9f0"/><rect x="570" y="942" width="170" height="34" rx="17.0" fill="#e9e9f0"/><rect x="820" y="942" width="170" height="34" rx="17.0" fill="#e9e9f0"/><rect x="1070" y="942" width="170" height="34" rx="17.0" fill="#e9e9f0"/>
  <rect x="0" y="1022" width="1600" height="2" fill="#f0f0f5"/>
  <rect x="70" y="1067" width="56" height="56" rx="16" fill="#efeeff"/><text x="98" y="1104" font-family="Inter, -apple-system, 'Segoe UI', Helvetica, Arial, sans-serif" font-size="22" font-weight="700" fill="#635BFF" text-anchor="middle">⚡</text><rect x="445" y="1067" width="56" height="56" rx="16" fill="#efeeff"/><text x="473" y="1104" font-family="Inter, -apple-system, 'Segoe UI', Helvetica, Arial, sans-serif" font-size="22" font-weight="700" fill="#635BFF" text-anchor="middle">◎</text><rect x="820" y="1067" width="56" height="56" rx="16" fill="#efeeff"/><text x="848" y="1104" font-family="Inter, -apple-system, 'Segoe UI', Helvetica, Arial, sans-serif" font-size="22" font-weight="700" fill="#635BFF" text-anchor="middle">✦</text><rect x="1195" y="1067" width="56" height="56" rx="16" fill="#efeeff"/><text x="1223" y="1104" font-family="Inter, -apple-system, 'Segoe UI', Helvetica, Arial, sans-serif" font-size="22" font-weight="700" fill="#635BFF" text-anchor="middle">↻</text>
  <rect x="140" y="1077" width="210" height="16" rx="8.0" fill="#1d1d27"/><rect x="515" y="1077" width="210" height="16" rx="8.0" fill="#1d1d27"/><rect x="890" y="1077" width="210" height="16" rx="8.0" fill="#1d1d27"/><rect x="1265" y="1077" width="210" height="16" rx="8.0" fill="#1d1d27"/>
  <rect x="140" y="1107" width="230" height="13" rx="6.5" fill="#e6e6ee"/><rect x="515" y="1107" width="230" height="13" rx="6.5" fill="#e6e6ee"/><rect x="890" y="1107" width="230" height="13" rx="6.5" fill="#e6e6ee"/><rect x="1265" y="1107" width="230" height="13" rx="6.5" fill="#e6e6ee"/>

  </g>
  <rect x="1" y="1" width="1598" height="1198" rx="26" fill="none" stroke="#e6e6ee" stroke-width="2"/>
</svg>